<?xml version="1.0" encoding="UTF-8"?>
<svg id="Camada_2" data-name="Camada 2" xmlns="http://www.w3.org/2000/svg" viewBox="0 0 350 390">
  <defs>
    <style>
      .cls-1, .cls-2 {
        fill: #fff;
      }

      .cls-3 {
        fill: #003259;
      }

      .cls-2 {
        stroke: #003259;
        stroke-miterlimit: 10;
        stroke-width: 5px;
      }
    </style>
  </defs>
  <g id="Camada_2-2" data-name="Camada 2">
    <g>
      <path class="cls-1" d="m334.89,90h-71.26C262.58,40.19,222.62,0,173.65,0s-88.93,40.19-89.98,90H15.11c-8.84,0-15.79,7.5-15.06,16.25l21.51,256.25c1.31,15.55,14.4,27.51,30.12,27.51h246.63c15.72,0,28.81-11.96,30.12-27.51l21.51-256.25c.73-8.75-6.22-16.25-15.06-16.25ZM173.65,20c37.95,0,68.91,31.22,69.95,70H103.7c1.04-38.78,32-70,69.95-70Z"/>
      <g>
        <g>
          <path class="cls-3" d="m102.53,351.57c-2.18-.95-3.89-2.3-5.13-4.05-1.24-1.75-1.87-3.79-1.87-6.12h7.12c.15,1.75.85,3.19,2.07,4.32,1.22,1.13,2.95,1.69,5.16,1.69s4.08-.55,5.37-1.66c1.28-1.11,1.92-2.54,1.92-4.29,0-1.36-.4-2.47-1.2-3.32-.8-.86-1.79-1.52-2.97-1.98-1.19-.47-2.83-.97-4.93-1.52-2.64-.7-4.79-1.41-6.45-2.13-1.65-.72-3.06-1.84-4.23-3.35-1.17-1.52-1.75-3.54-1.75-6.06,0-2.33.58-4.37,1.75-6.12,1.17-1.75,2.8-3.09,4.9-4.02,2.1-.93,4.53-1.4,7.29-1.4,3.93,0,7.14.98,9.65,2.95,2.51,1.96,3.9,4.66,4.17,8.08h-7.35c-.12-1.48-.82-2.74-2.1-3.79-1.28-1.05-2.97-1.57-5.07-1.57-1.91,0-3.46.49-4.67,1.46-1.21.97-1.81,2.37-1.81,4.2,0,1.24.38,2.27,1.14,3.06.76.8,1.72,1.43,2.89,1.9,1.17.47,2.76.97,4.78,1.52,2.68.74,4.87,1.48,6.56,2.22,1.69.74,3.13,1.88,4.32,3.41,1.19,1.54,1.78,3.59,1.78,6.15,0,2.06-.55,4.01-1.66,5.83-1.11,1.83-2.72,3.29-4.84,4.4-2.12,1.11-4.62,1.66-7.49,1.66-2.72,0-5.17-.48-7.35-1.43Z"/>
          <path class="cls-3" d="m164.11,312.06v40.53h-6.65v-17.73h-19.07v17.73h-6.65v-40.53h6.65v17.38h19.07v-17.38h6.65Z"/>
          <path class="cls-3" d="m180.94,350.35c-3.17-1.77-5.68-4.24-7.52-7.41s-2.77-6.74-2.77-10.7.92-7.52,2.77-10.67,4.35-5.61,7.52-7.38c3.17-1.77,6.64-2.65,10.41-2.65s7.3.88,10.47,2.65c3.17,1.77,5.67,4.23,7.49,7.38,1.83,3.15,2.74,6.71,2.74,10.67s-.91,7.53-2.74,10.7c-1.83,3.17-4.33,5.64-7.49,7.41-3.17,1.77-6.66,2.65-10.47,2.65s-7.24-.88-10.41-2.65Zm17.58-4.96c2.1-1.22,3.74-2.97,4.93-5.25,1.19-2.27,1.78-4.91,1.78-7.9s-.59-5.62-1.78-7.87c-1.19-2.25-2.83-3.98-4.93-5.19-2.1-1.2-4.49-1.81-7.17-1.81s-5.07.6-7.17,1.81c-2.1,1.21-3.74,2.94-4.93,5.19-1.19,2.26-1.78,4.88-1.78,7.87s.59,5.63,1.78,7.9c1.19,2.27,2.83,4.02,4.93,5.25,2.1,1.22,4.49,1.84,7.17,1.84s5.07-.61,7.17-1.84Z"/>
          <path class="cls-3" d="m245.47,329.96c-.97,1.83-2.53,3.32-4.67,4.46-2.14,1.15-4.88,1.72-8.22,1.72h-7.35v16.45h-6.65v-40.53h14c3.11,0,5.74.53,7.9,1.6,2.16,1.07,3.77,2.52,4.84,4.35,1.07,1.83,1.6,3.87,1.6,6.12,0,2.06-.49,4.01-1.46,5.83Zm-7.23-.96c1.24-1.15,1.87-2.77,1.87-4.87,0-4.43-2.51-6.65-7.52-6.65h-7.35v13.24h7.35c2.53,0,4.41-.57,5.66-1.72Z"/>
        </g>
        <g>
          <g>
            <g>
              <path class="cls-3" d="m164.06,133.59l-.61-6.21c2.57-.25,5.19-.38,7.78-.38v6.24c-2.39,0-4.8.12-7.17.35Z"/>
              <path class="cls-3" d="m148.2,281.31c-4.92-1.5-9.72-3.5-14.26-5.94l2.95-5.49c4.18,2.25,8.6,4.09,13.13,5.47l-1.82,5.97Zm-27.08-14.55c-3.97-3.27-7.64-6.95-10.91-10.94l4.82-3.95c3.01,3.67,6.39,7.06,10.05,10.07l-3.97,4.81Zm-19.49-23.78c-2.43-4.55-4.42-9.36-5.91-14.28l5.97-1.8c1.37,4.54,3.2,8.96,5.44,13.15l-5.5,2.94Zm-8.89-29.44c-.24-2.53-.37-5.11-.37-7.67,0-2.6.13-5.21.38-7.77l6.21.61c-.23,2.36-.35,4.77-.35,7.17,0,2.36.11,4.74.34,7.07l-6.21.6Zm8.98-28.78l-5.97-1.81c1.5-4.92,3.49-9.72,5.92-14.27l5.5,2.95c-2.24,4.18-4.07,8.6-5.45,13.13Zm13.36-24.95l-4.82-3.96c3.27-3.98,6.94-7.65,10.92-10.92l3.96,4.82c-3.66,3.01-7.05,6.4-10.06,10.07Zm21.88-17.99l-2.95-5.5c4.55-2.44,9.35-4.43,14.27-5.93l1.81,5.97c-4.53,1.38-8.95,3.21-13.14,5.46Z"/>
              <path class="cls-3" d="m171.23,284.73c-2.59,0-5.21-.13-7.78-.38l.61-6.21c2.37.23,4.78.35,7.17.35v6.24Z"/>
            </g>
            <path class="cls-3" d="m171.23,284.73v-6.24c40.05,0,72.63-32.58,72.63-72.63s-32.58-72.63-72.63-72.63v-6.24c43.49,0,78.87,35.38,78.87,78.87s-35.38,78.87-78.87,78.87Z"/>
          </g>
          <g>
            <g>
              <path class="cls-3" d="m178.23,159c-2.3-.34-4.66-.51-7.01-.51v-6.24c2.65,0,5.32.2,7.92.58l-.92,6.17Z"/>
              <path class="cls-3" d="m195.3,253.79l-2.8-5.57c4.47-2.25,8.54-5.18,12.1-8.71l4.39,4.43c-4.03,4-8.63,7.32-13.69,9.86Zm23.65-23.47l-5.55-2.85c2.29-4.45,3.84-9.22,4.62-14.17l6.16.97c-.88,5.6-2.64,11-5.23,16.05Zm-.94-31.93c-.79-4.95-2.35-9.71-4.64-14.16l5.54-2.85c2.59,5.04,4.36,10.44,5.25,16.04l-6.16.98Zm-13.46-26.19c-3.57-3.53-7.64-6.46-12.11-8.7l2.8-5.57c5.06,2.54,9.67,5.85,13.7,9.84l-4.39,4.43Z"/>
              <path class="cls-3" d="m171.23,259.48v-6.24c2.35,0,4.7-.17,7.01-.51l.92,6.17c-2.6.39-5.27.58-7.92.58Z"/>
            </g>
            <path class="cls-3" d="m171.23,259.48c-29.56,0-53.62-24.05-53.62-53.62s24.05-53.62,53.62-53.62v6.24c-26.12,0-47.38,21.25-47.38,47.38s21.25,47.38,47.38,47.38v6.24Z"/>
          </g>
          <circle class="cls-2" cx="171.23" cy="205.87" r="25.25"/>
          <circle class="cls-2" cx="115.4" cy="259.8" r="8.42"/>
          <circle class="cls-2" cx="137.7" cy="167.64" r="6.31"/>
          <circle class="cls-2" cx="247.12" cy="206.36" r="10.52"/>
        </g>
      </g>
    </g>
  </g>
</svg>